<?xml version="1.0" standalone="no"?>
<!DOCTYPE svg PUBLIC "-//W3C//DTD SVG 20010904//EN"
 "http://www.w3.org/TR/2001/REC-SVG-20010904/DTD/svg10.dtd">
<svg version="1.0" xmlns="http://www.w3.org/2000/svg"
 width="499.000000pt" height="499.000000pt" viewBox="0 0 499.000000 499.000000"
 preserveAspectRatio="xMidYMid meet">
<metadata>
Created by potrace 1.14, written by Peter Selinger 2001-2017
</metadata>
<g transform="translate(0.000000,499.000000) scale(0.100000,-0.100000)"
fill="#000000" stroke="none">
<path d="M205 4792 c3 -9 42 -78 86 -154 43 -75 79 -139 79 -142 0 -3 -41 -75
-90 -161 -50 -85 -89 -159 -86 -163 2 -4 31 -6 63 -4 l59 4 32 56 c18 31 48
84 67 117 18 33 39 60 46 60 6 0 42 -53 78 -117 l66 -117 68 -1 c38 0 66 3 64
8 -2 4 -26 45 -52 92 -27 47 -55 93 -63 103 -8 9 -11 17 -7 17 4 0 1 8 -7 18
-8 9 -24 33 -35 53 l-20 35 40 70 c22 38 62 106 88 151 27 45 49 84 49 87 0 3
-27 5 -61 5 l-61 -1 -32 -52 c-18 -28 -48 -79 -67 -113 -19 -35 -37 -63 -41
-63 -4 0 -38 52 -75 115 l-67 114 -64 0 c-55 -1 -63 -3 -57 -17z"/>
<path d="M985 4782 c-17 -16 -51 -57 -76 -93 -25 -35 -80 -110 -121 -166 -76
-103 -84 -126 -60 -169 17 -31 55 -41 150 -39 l82 1 1 -30 c1 -17 1 -35 0 -39
-2 -14 1 -603 13 -2314 l2 -412 -24 -6 c-26 -6 -90 -45 -113 -67 -106 -107
-135 -246 -78 -379 l22 -51 -145 -145 -146 -146 -67 67 c-36 36 -71 67 -76 67
-70 10 -102 -12 -115 -76 -5 -28 -30 -202 -39 -275 -1 -14 -6 -45 -10 -70 -11
-63 -8 -90 13 -113 25 -29 49 -34 106 -25 28 4 71 10 96 14 25 3 56 7 70 9 14
2 48 7 75 11 28 3 57 8 65 9 8 2 34 6 57 10 43 7 66 25 77 61 10 33 -7 64 -74
133 l-62 63 149 149 150 149 44 -15 c158 -56 334 18 405 170 13 28 24 55 24
62 0 21 20 25 123 23 56 0 109 -1 117 -1 8 0 62 0 120 0 58 0 112 0 120 0 8 0
62 0 120 0 58 0 112 0 120 0 8 0 60 0 115 0 128 0 90 0 393 1 144 0 267 -2
272 -5 6 -3 10 -3 10 2 0 8 189 7 223 -1 9 -2 17 -1 17 2 0 7 193 5 223 -2 9
-2 17 -1 17 2 0 7 193 5 223 -2 9 -2 17 -1 17 2 0 7 203 5 233 -2 9 -2 17 -1
17 2 0 4 30 6 67 5 38 -1 104 -3 149 -4 l81 -1 0 -71 c-1 -105 8 -140 41 -159
15 -9 37 -15 48 -13 10 2 21 4 24 4 5 1 297 218 347 258 27 22 39 73 23 102
-6 12 -92 83 -191 157 -196 146 -218 156 -264 109 -27 -26 -27 -26 -27 -137 0
-49 -4 -78 -11 -80 -7 -2 -628 -3 -1382 -3 -1180 1 -1371 -1 -1376 -14 -3 -9
-15 6 -32 40 -15 30 -35 63 -45 75 -31 37 -110 92 -142 99 l-30 7 0 146 c0 81
-2 440 -5 797 -4 675 -8 1821 -6 1842 1 7 26 11 74 11 114 0 117 1 142 27 43
42 34 71 -60 197 -47 62 -91 120 -98 128 -7 9 -32 41 -56 73 -24 31 -44 57
-45 57 -45 14 -74 9 -101 -18z m170 -3447 c45 -33 66 -74 67 -128 2 -143 -178
-221 -274 -119 -84 88 -59 222 50 268 45 19 119 9 157 -21z"/>
<path d="M2751 4068 c-63 -17 -117 -63 -147 -125 -23 -50 -26 -65 -21 -120 7
-70 22 -105 64 -147 44 -45 107 -69 184 -69 150 1 245 98 240 248 -3 89 -57
168 -141 203 -42 17 -132 22 -179 10z"/>
<path d="M1610 3088 c1 -650 4 -979 12 -1013 36 -167 144 -277 307 -314 60
-13 247 -7 296 10 45 16 46 24 32 139 -3 30 -9 80 -13 110 -3 30 -7 60 -8 65
-2 18 -17 22 -55 15 -75 -14 -121 5 -148 59 -16 33 -17 102 -17 961 l-1 925
-203 3 -202 2 0 -962z"/>
<path d="M2643 3410 c-17 -5 -18 -39 -17 -795 1 -434 2 -794 3 -800 1 -6 75
-10 200 -10 l200 0 0 803 c0 441 -3 802 -7 803 -47 3 -366 3 -379 -1z"/>
<path d="M3418 3253 c-7 -15 -1 -1048 6 -1093 35 -217 160 -348 356 -378 56
-8 183 -7 232 1 111 20 211 87 279 186 54 80 64 71 64 -56 l0 -108 175 0 175
0 2 728 1 727 -184 0 -184 0 -1 -412 c-1 -434 -2 -464 -20 -531 -32 -118 -96
-189 -200 -220 -42 -13 -141 -15 -186 -4 -68 17 -127 79 -140 148 -3 19 -7
255 -8 524 l-2 490 -181 3 c-99 1 -182 -1 -184 -5z"/>
<path d="M170 1748 c0 -5 23 -47 50 -94 28 -47 50 -87 50 -90 0 -2 11 -21 23
-42 13 -20 41 -68 63 -107 l38 -70 2 -130 c1 -71 2 -132 3 -135 0 -3 30 -3 66
-2 l65 4 0 131 0 131 82 145 c46 80 88 153 93 163 40 68 53 98 46 102 -4 3
-34 5 -66 4 -66 -2 -64 1 -160 -176 -27 -50 -54 -90 -59 -89 -5 2 -43 62 -85
134 l-76 131 -67 0 c-38 0 -68 -5 -68 -10z"/>
<path d="M4427 933 c-3 -7 -2 -74 2 -94 1 -3 61 -5 135 -5 74 1 144 -1 155 -4
18 -4 1 -31 -135 -205 -85 -110 -159 -207 -163 -215 -5 -8 -8 -37 -7 -65 l1
-50 238 -3 237 -2 0 55 0 55 -166 0 c-163 0 -166 0 -153 19 8 11 81 106 163
212 147 190 149 193 153 250 l5 59 -230 0 c-127 0 -233 -3 -235 -7z"/>
</g>
</svg>
