<?xml version="1.0" standalone="no"?>
<!DOCTYPE svg PUBLIC "-//W3C//DTD SVG 20010904//EN"
 "http://www.w3.org/TR/2001/REC-SVG-20010904/DTD/svg10.dtd">
<svg version="1.0" xmlns="http://www.w3.org/2000/svg"
 width="500.000000pt" height="500.000000pt" viewBox="0 0 500.000000 500.000000"
 preserveAspectRatio="xMidYMid meet">
<metadata>
Created by potrace 1.14, written by Peter Selinger 2001-2017
</metadata>
<g transform="translate(0.000000,500.000000) scale(0.100000,-0.100000)"
fill="#000000" stroke="none">
<path d="M0 2501 l0 -2501 2500 0 2500 0 0 2490 c0 2209 -2 2489 -15 2484 -8
-4 -15 -1 -15 5 0 9 -5 9 -20 1 -15 -8 -20 -8 -20 2 0 8 -3 9 -8 3 -10 -14
-32 -17 -32 -4 0 8 -5 7 -16 -2 -13 -10 -17 -10 -24 0 -6 11 -9 11 -13 0 -5
-12 -6 -12 -6 0 -1 11 -4 11 -17 0 -13 -10 -17 -10 -24 0 -6 11 -9 11 -13 0
-5 -12 -6 -12 -6 0 -1 11 -4 11 -17 0 -13 -10 -17 -10 -24 0 -6 11 -9 11 -13
0 -4 -11 -6 -11 -6 -1 -1 8 -6 10 -13 6 -18 -11 -48 -12 -48 -2 0 5 -6 6 -12
2 -18 -11 -48 -12 -48 -2 0 5 -6 6 -12 2 -18 -11 -48 -12 -48 -2 0 5 -6 6 -12
2 -17 -11 -48 -12 -48 -3 0 4 -14 4 -30 -1 -19 -5 -30 -5 -30 1 0 6 -6 7 -12
3 -18 -11 -48 -12 -48 -2 0 5 -6 6 -12 2 -18 -11 -48 -12 -48 -2 0 5 -6 6 -12
2 -18 -11 -48 -12 -48 -2 0 5 -6 6 -12 2 -18 -11 -48 -12 -48 -2 0 5 -6 6 -12
2 -18 -11 -48 -12 -48 -2 0 5 -6 6 -12 2 -18 -11 -48 -12 -48 -2 0 5 -6 6 -12
2 -19 -12 -48 -12 -48 -1 0 5 -7 4 -16 -4 -13 -10 -17 -10 -24 0 -6 11 -9 11
-13 0 -4 -11 -6 -11 -6 -1 -1 8 -6 10 -13 6 -19 -12 -48 -12 -48 -1 0 5 -7 4
-16 -4 -13 -10 -17 -10 -24 0 -6 11 -9 11 -13 0 -5 -12 -6 -12 -6 0 -1 11 -4
11 -17 0 -13 -10 -17 -10 -24 0 -6 11 -9 11 -13 0 -5 -12 -6 -12 -6 0 -1 11
-4 11 -17 0 -13 -10 -17 -10 -24 0 -6 11 -9 11 -13 0 -5 -12 -6 -12 -6 0 -1
11 -4 11 -17 0 -13 -10 -17 -10 -24 0 -6 11 -9 11 -13 0 -5 -12 -6 -12 -6 0
-1 11 -4 11 -17 0 -13 -10 -17 -10 -24 0 -6 11 -9 11 -13 0 -5 -12 -6 -12 -6
0 -1 11 -4 11 -17 0 -9 -7 -18 -9 -22 -3 -8 11 -53 14 -46 3 2 -4 -5 -7 -16
-6 -11 1 -20 5 -20 10 0 5 -7 4 -16 -4 -9 -7 -18 -9 -22 -3 -8 11 -53 14 -46
3 2 -4 -5 -7 -16 -6 -11 1 -20 5 -20 10 0 5 -7 4 -16 -4 -9 -7 -18 -9 -22 -3
-8 11 -53 14 -46 3 2 -4 -5 -7 -16 -6 -11 1 -20 5 -20 10 0 5 -7 4 -16 -4 -13
-10 -17 -10 -24 0 -6 11 -9 11 -13 0 -5 -12 -6 -12 -6 0 -1 11 -4 11 -17 0
-13 -10 -17 -10 -24 0 -6 11 -9 11 -13 0 -5 -12 -6 -12 -6 0 -1 11 -4 11 -17
0 -13 -10 -17 -10 -24 0 -6 11 -9 11 -13 0 -5 -12 -6 -12 -6 0 -1 11 -4 11
-17 0 -13 -10 -17 -10 -24 0 -6 11 -9 11 -13 0 -5 -12 -6 -12 -6 0 -1 11 -4
11 -17 0 -13 -10 -17 -10 -25 2 -7 12 -9 12 -9 -1 0 -12 -2 -12 -9 -1 -5 8
-11 9 -15 3 -6 -10 -50 -7 -69 5 -6 3 -7 1 -3 -5 4 -7 -1 -10 -14 -9 -11 1
-20 5 -20 10 0 4 -6 5 -12 0 -17 -10 -29 -11 -56 -1 -13 4 -21 4 -18 -1 6 -9
-67 -6 -83 3 -5 4 -12 2 -16 -4 -4 -6 -11 -8 -16 -5 -5 4 -9 2 -9 -2 0 -5 -13
-8 -30 -7 -16 1 -30 -2 -30 -7 0 -6 -10 0 -22 11 -21 20 -23 20 -35 4 -12 -17
-13 -17 -13 -1 0 20 -11 22 -28 5 -9 -9 -12 -9 -12 2 0 13 -2 13 -10 0 -6 -9
-10 -10 -10 -3 0 12 -37 12 -58 -1 -7 -4 -12 -2 -12 5 0 8 -4 8 -15 -1 -11 -9
-15 -9 -15 -1 0 9 -5 9 -20 1 -14 -7 -20 -7 -20 0 0 5 -5 10 -11 10 -5 0 -7
-5 -3 -11 4 -7 -1 -7 -16 1 -15 8 -20 8 -16 1 4 -6 3 -11 -3 -11 -5 0 -11 6
-14 13 -3 9 -7 9 -20 -2 -10 -8 -17 -9 -17 -3 0 12 -38 10 -58 -2 -7 -4 -12
-2 -12 5 0 8 -5 7 -17 -2 -15 -12 -16 -12 -8 1 7 13 6 13 -7 2 -12 -10 -17
-10 -20 -1 -3 9 -9 9 -23 2 -12 -7 -28 -8 -46 -1 -19 6 -34 6 -48 -2 -12 -6
-21 -7 -21 -1 0 5 -7 12 -16 15 -8 3 -13 2 -10 -3 3 -5 -1 -12 -10 -15 -24 -9
-27 -8 -20 10 5 14 4 15 -9 4 -8 -7 -15 -9 -15 -6 0 4 -10 2 -22 -5 -18 -10
-20 -9 -14 7 6 17 6 17 -11 2 -16 -15 -22 -15 -52 -2 -27 11 -31 11 -22 1 14
-18 -14 -16 -48 2 -13 7 -21 8 -17 3 11 -18 -18 -20 -44 -3 -21 13 -23 13 -13
1 9 -12 7 -15 -13 -15 -13 0 -24 3 -24 6 0 4 -7 10 -16 13 -8 3 -13 2 -10 -3
3 -5 -1 -11 -9 -15 -8 -3 -15 0 -15 6 0 6 -5 7 -12 2 -17 -12 -38 -11 -67 5
-13 7 -21 9 -17 3 3 -5 -1 -13 -10 -16 -24 -9 -27 -8 -20 10 5 14 4 15 -9 4
-8 -7 -15 -9 -15 -6 0 4 -10 2 -22 -5 -18 -10 -20 -9 -14 7 6 17 6 17 -11 2
-16 -15 -22 -15 -52 -2 -27 11 -31 11 -22 1 14 -18 -14 -16 -48 2 -13 7 -21 8
-17 3 11 -18 -18 -20 -44 -3 -22 14 -24 14 -13 0 11 -13 10 -15 -5 -14 -9 1
-28 7 -41 14 -13 7 -21 9 -17 3 3 -5 -1 -12 -9 -16 -8 -3 -15 -1 -15 5 0 6 -4
7 -10 4 -18 -11 -51 -14 -45 -4 12 19 -28 23 -41 4 -8 -10 -14 -14 -14 -8 0 6
-11 10 -24 9 -13 0 -22 -4 -19 -8 2 -5 0 -8 -6 -8 -5 0 -11 6 -14 13 -3 9 -7
9 -20 -2 -11 -9 -17 -10 -17 -2 0 6 -5 11 -11 11 -5 0 -8 -4 -5 -8 3 -5 -2 -9
-10 -9 -9 0 -13 6 -9 15 4 12 3 13 -10 2 -8 -7 -15 -9 -15 -6 0 4 -10 2 -22
-5 -18 -10 -20 -9 -14 6 5 14 3 15 -6 8 -8 -6 -22 -7 -33 -2 -29 11 -558 11
-550 0 3 -5 1 -12 -5 -16 -5 -3 -10 -1 -10 4 0 6 -5 11 -11 11 -5 0 -8 -4 -5
-8 2 -4 -4 -8 -14 -8 -10 0 -16 4 -13 9 3 5 0 7 -8 5 -8 -3 -13 -11 -11 -17 1
-7 -2 -10 -8 -6 -6 3 -8 10 -5 15 3 5 1 11 -5 15 -7 4 -10 -816 -10 -2494z
m2510 2018 c0 -10 7 -22 16 -27 9 -5 15 -11 14 -13 -1 -4 10 -35 32 -86 6 -16
12 -32 12 -36 1 -4 8 -12 16 -17 8 -5 11 -10 6 -10 -5 0 -3 -6 3 -13 6 -8 8
-17 4 -20 -3 -4 -1 -7 5 -7 7 0 12 -9 12 -21 0 -11 4 -18 8 -15 4 2 9 -5 9
-16 1 -12 8 -25 15 -29 7 -5 10 -9 6 -9 -4 0 4 -21 17 -46 14 -26 25 -53 25
-60 0 -8 5 -14 11 -14 6 0 9 -7 5 -15 -3 -8 -1 -15 4 -15 5 0 12 -11 16 -25 3
-14 10 -25 16 -25 5 0 7 -4 3 -9 -3 -5 0 -13 6 -16 5 -4 8 -13 5 -21 -3 -8 1
-14 8 -14 8 0 14 -6 13 -12 -1 -19 26 -78 36 -78 4 0 6 -4 2 -9 -3 -5 3 -17
12 -27 10 -10 17 -18 15 -18 -8 -2 11 -56 19 -56 5 0 9 -12 9 -26 0 -14 4 -23
10 -19 6 3 10 -3 10 -14 0 -12 5 -21 12 -21 6 0 8 -3 5 -7 -4 -3 0 -15 10 -25
12 -13 13 -18 3 -18 -9 0 -6 -8 8 -20 12 -12 22 -30 22 -40 0 -11 5 -20 10
-20 6 0 10 -9 10 -20 0 -11 5 -20 11 -20 5 0 7 -4 4 -10 -3 -5 -1 -10 4 -10 6
0 10 -3 10 -7 -3 -16 23 -73 34 -73 6 0 8 -3 4 -6 -3 -4 7 -33 24 -65 16 -33
26 -59 22 -59 -5 0 -3 -4 2 -8 14 -10 36 -50 41 -76 2 -11 8 -22 14 -24 5 -2
10 -10 10 -17 0 -7 14 -39 30 -70 17 -31 30 -63 30 -71 0 -8 6 -17 14 -20 8
-3 12 -13 8 -26 -3 -14 -1 -19 6 -14 8 5 12 0 12 -13 0 -12 5 -21 11 -21 5 0
8 -4 4 -9 -3 -5 -1 -12 5 -16 6 -4 8 -11 5 -16 -4 -5 -1 -9 6 -9 7 0 9 -3 6
-7 -4 -3 1 -12 11 -20 9 -8 12 -12 5 -9 -8 5 -8 0 0 -19 7 -14 15 -25 20 -25
4 0 7 -6 7 -13 0 -18 24 -67 33 -67 4 0 7 -6 7 -13 0 -7 9 -32 20 -55 11 -22
20 -46 20 -52 0 -5 5 -10 11 -10 5 0 8 -4 4 -9 -3 -5 0 -13 6 -16 5 -4 8 -14
5 -22 -3 -8 -1 -11 4 -8 6 3 10 -3 10 -14 0 -12 5 -21 10 -21 6 0 10 -7 10
-15 0 -16 20 -56 33 -66 4 -3 9 -16 10 -27 1 -12 5 -22 9 -22 4 0 8 -9 8 -20
0 -11 3 -20 8 -20 4 0 13 -15 20 -32 8 -18 22 -50 33 -71 10 -22 19 -45 19
-53 0 -8 4 -14 8 -14 4 0 14 -17 21 -37 8 -21 18 -41 23 -44 4 -3 10 -15 13
-27 2 -11 15 -41 29 -67 14 -25 26 -52 26 -60 0 -8 5 -15 11 -15 6 0 9 -7 5
-15 -3 -8 -1 -15 5 -15 6 0 7 -5 4 -10 -3 -6 -2 -10 3 -10 9 0 32 -50 31 -67
-1 -3 3 -9 8 -12 4 -3 14 -17 21 -30 11 -19 11 -22 0 -16 -7 3 -6 1 3 -7 9 -7
16 -15 16 -18 0 -7 36 -84 42 -90 4 -3 7 -14 9 -25 2 -11 10 -25 18 -31 7 -6
11 -14 7 -18 -4 -4 -2 -10 4 -14 6 -4 13 -16 15 -27 1 -11 5 -22 8 -25 10 -10
50 -96 50 -107 0 -7 5 -13 10 -13 6 0 10 -4 10 -10 0 -5 12 -35 27 -67 14 -32
27 -60 28 -63 0 -3 9 -20 18 -37 10 -18 14 -33 10 -33 -5 0 -3 -4 2 -8 15 -10
35 -49 35 -67 0 -8 5 -15 10 -15 6 0 10 -9 10 -20 0 -11 5 -20 10 -20 6 0 10
-6 10 -14 0 -13 38 -94 50 -106 3 -3 7 -14 8 -25 2 -11 8 -22 13 -23 5 -2 7
-7 4 -12 -3 -5 2 -15 11 -24 8 -9 12 -20 9 -26 -3 -5 -1 -10 5 -10 6 0 8 -4 5
-10 -3 -5 -3 -10 2 -10 9 0 33 -48 33 -67 0 -7 5 -13 10 -13 6 0 10 -9 10 -19
0 -11 6 -26 13 -33 7 -7 14 -17 16 -23 5 -26 36 -85 44 -85 4 0 6 -4 3 -9 -3
-5 6 -29 20 -54 44 -80 42 -86 -32 -82 -42 2 -62 -1 -57 -8 4 -6 1 -7 -8 -1
-20 12 -39 14 -39 3 0 -6 -6 -7 -12 -2 -19 12 -152 11 -160 -1 -5 -7 -8 -7 -8
2 0 6 -5 12 -11 12 -5 0 -7 -5 -3 -12 5 -7 3 -8 -7 -2 -8 5 -57 9 -109 10
-151 2 -147 1 -154 29 -4 14 -11 23 -16 20 -5 -3 -7 4 -5 15 2 12 -1 20 -9 20
-13 0 -32 44 -28 63 1 4 -3 7 -8 7 -6 0 -10 7 -10 15 0 8 -4 15 -10 15 -5 0
-10 7 -10 15 0 8 -4 15 -10 15 -5 0 -7 7 -4 15 4 8 1 15 -5 15 -6 0 -11 6 -11
14 0 8 -7 16 -15 20 -8 3 -15 14 -15 25 0 11 -6 26 -13 33 -8 7 -12 19 -9 27
3 8 0 11 -7 7 -7 -5 -11 1 -11 13 0 12 -4 21 -10 21 -5 0 -10 9 -10 20 0 11
-4 20 -10 20 -5 0 -10 7 -10 15 0 8 -4 15 -10 15 -5 0 -9 3 -8 8 3 12 -25 62
-34 62 -5 0 -7 4 -3 9 3 5 -2 17 -11 25 -8 9 -13 16 -9 16 3 0 -2 13 -12 30
-9 16 -21 30 -25 30 -4 0 -5 7 -2 15 4 8 2 15 -3 15 -5 0 -27 36 -48 79 -22
44 -43 77 -47 75 -5 -3 -7 -2 -6 3 4 11 -43 105 -57 115 -5 4 -6 8 -2 8 5 0
-1 12 -12 26 -11 15 -18 30 -15 35 3 5 0 9 -5 9 -6 0 -11 7 -11 15 0 8 -4 15
-9 15 -5 0 -12 13 -16 30 -4 16 -11 33 -17 36 -7 5 -8 2 -3 -6 5 -9 4 -11 -3
-6 -7 4 -12 18 -12 32 0 14 -9 34 -20 46 -11 12 -20 28 -20 35 0 7 -5 13 -11
13 -5 0 -7 5 -4 10 3 6 1 10 -4 10 -6 0 -11 3 -10 8 2 15 -14 52 -22 52 -5 0
-9 7 -9 15 0 8 -6 15 -12 15 -8 0 -9 3 -3 8 14 10 15 52 1 52 -7 0 -6 3 2 9
10 6 10 10 -3 21 -8 7 -15 9 -15 5 0 -4 -7 -2 -15 5 -11 9 -15 9 -15 1 0 -9
-5 -9 -20 -1 -14 8 -20 8 -20 0 0 -7 -6 -8 -18 -1 -11 6 -24 6 -32 1 -9 -6
-17 -5 -22 3 -6 9 -8 9 -8 -1 0 -9 -5 -10 -18 -3 -11 6 -24 6 -32 1 -9 -6 -17
-5 -22 3 -6 9 -8 9 -8 -1 0 -9 -5 -10 -18 -3 -11 6 -24 6 -32 1 -9 -6 -17 -5
-22 3 -6 9 -8 9 -8 -1 0 -9 -5 -10 -18 -3 -11 6 -24 6 -32 1 -9 -6 -17 -5 -22
3 -6 9 -8 9 -8 -1 0 -9 -5 -10 -18 -3 -11 6 -24 6 -32 1 -9 -6 -17 -5 -22 3
-6 9 -8 9 -8 -1 0 -9 -5 -10 -18 -3 -11 6 -24 6 -32 1 -9 -6 -17 -5 -22 3 -6
9 -8 9 -8 -1 0 -9 -5 -10 -18 -3 -11 6 -24 6 -32 1 -9 -6 -17 -5 -22 3 -6 9
-8 9 -8 -1 0 -9 -5 -10 -18 -3 -11 6 -24 6 -32 1 -9 -6 -17 -5 -22 3 -6 9 -8
9 -8 -1 0 -9 -5 -10 -18 -3 -11 6 -24 6 -32 1 -9 -6 -17 -5 -22 3 -6 9 -8 9
-8 -1 0 -9 -5 -10 -18 -3 -11 6 -24 6 -32 1 -9 -6 -17 -5 -22 3 -6 9 -8 9 -8
-1 0 -9 -5 -10 -18 -3 -11 6 -24 6 -32 1 -9 -6 -17 -5 -22 3 -6 9 -8 9 -8 -1
0 -9 -5 -10 -18 -3 -10 5 -24 6 -32 1 -8 -5 -21 -5 -30 0 -9 5 -22 5 -30 0 -8
-5 -19 -6 -25 -2 -17 11 -35 11 -35 0 0 -6 -6 -5 -15 2 -8 7 -15 8 -15 3 0 -5
-12 -9 -27 -8 l-28 0 -2 -80 c-2 -98 -7 -126 -27 -157 -9 -14 -13 -28 -9 -31
3 -4 1 -7 -6 -7 -7 0 -9 -4 -6 -10 3 -5 2 -10 -3 -10 -8 0 -21 -27 -26 -53 0
-4 -7 -12 -15 -16 -7 -5 -11 -13 -7 -19 3 -6 -2 -15 -11 -21 -10 -6 -15 -11
-10 -11 4 0 1 -13 -8 -30 -8 -16 -14 -32 -13 -34 2 -2 -5 -13 -15 -24 -10 -11
-20 -28 -21 -37 -1 -9 -10 -25 -19 -35 -9 -11 -14 -20 -11 -20 4 0 1 -6 -5
-13 -6 -8 -8 -17 -4 -20 3 -4 1 -7 -5 -7 -7 0 -12 -8 -12 -19 0 -10 -7 -24
-15 -31 -8 -7 -12 -16 -9 -21 3 -5 0 -9 -5 -9 -6 0 -11 -9 -11 -20 0 -11 -5
-20 -11 -20 -5 0 -7 -4 -4 -10 3 -5 1 -10 -5 -10 -6 0 -8 -5 -5 -10 3 -6 1
-10 -5 -10 -6 0 -8 -5 -5 -10 3 -6 -1 -13 -9 -16 -9 -3 -14 -10 -11 -14 3 -5
1 -11 -5 -15 -6 -4 -8 -11 -5 -16 4 -5 1 -9 -6 -9 -7 0 -9 -3 -6 -7 4 -3 0
-15 -10 -25 -9 -10 -13 -18 -8 -18 4 0 2 -7 -5 -15 -7 -8 -9 -15 -6 -15 4 0
-2 -10 -13 -22 -11 -11 -18 -25 -15 -30 3 -4 1 -8 -4 -8 -5 0 -15 -18 -22 -40
-7 -22 -17 -40 -22 -40 -4 0 -8 -3 -7 -8 2 -16 -14 -51 -22 -47 -4 3 -6 -4 -4
-15 2 -11 0 -20 -6 -20 -5 0 -9 -6 -9 -14 0 -8 -7 -16 -15 -20 -8 -3 -12 -11
-9 -19 3 -8 -2 -20 -10 -27 -9 -7 -13 -16 -10 -21 3 -5 0 -9 -6 -9 -6 0 -9 -4
-5 -9 3 -5 1 -12 -5 -16 -6 -4 -8 -10 -6 -14 3 -4 -4 -13 -16 -20 -15 -9 -18
-10 -13 0 6 8 4 10 -6 4 -20 -13 -49 -13 -49 -1 0 7 -3 7 -8 1 -8 -12 -52 -13
-69 -2 -7 5 -13 4 -13 0 0 -10 -41 -10 -57 0 -7 4 -14 4 -17 -1 -6 -10 -77 -9
-93 1 -6 4 -14 3 -17 -2 -7 -10 -25 -9 -43 2 -7 5 -13 4 -13 0 0 -10 -47 -10
-56 0 -4 4 -12 3 -18 -1 -16 -10 -70 -9 -78 3 -5 7 -8 6 -8 0 0 -12 -49 -13
-68 -2 -6 5 -12 5 -12 0 0 -4 -16 -8 -35 -8 -19 0 -35 4 -35 9 0 5 -7 3 -15
-4 -13 -11 -15 -8 -15 13 0 14 5 29 10 32 6 4 8 10 5 15 -3 4 2 10 10 14 8 3
12 12 9 21 -3 8 -1 15 5 15 6 0 11 6 11 13 0 6 14 38 30 71 16 32 27 62 24 67
-3 5 -1 9 4 9 8 0 34 47 34 60 0 3 5 12 13 20 7 8 16 30 20 47 3 18 11 33 17
33 6 0 8 7 4 15 -3 8 0 14 7 12 7 -1 11 6 9 15 -2 10 2 18 8 18 6 0 8 4 5 10
-3 5 -1 10 5 10 7 0 10 7 6 15 -3 8 -1 15 5 15 6 0 9 6 6 13 -2 6 2 17 9 22 7
6 14 17 16 25 2 8 9 21 16 28 7 8 10 18 7 23 -4 5 -1 9 4 9 6 0 10 3 9 8 0 4
10 30 22 57 13 28 23 53 22 58 -1 4 3 7 8 7 6 0 10 4 10 9 0 6 13 38 29 73 16
34 27 67 24 72 -3 5 -1 6 5 2 9 -6 25 21 20 34 -2 3 8 22 20 43 13 20 20 37
15 37 -4 0 1 7 11 15 11 8 17 15 13 15 -4 0 -2 10 5 23 7 12 13 24 14 27 8 27
30 70 36 70 4 0 5 9 3 20 -2 11 0 18 5 15 8 -5 26 32 22 48 -1 4 3 7 9 7 5 0
7 5 4 10 -3 6 -1 10 5 10 7 0 10 7 6 15 -3 8 -2 15 2 15 5 0 14 16 22 35 8 19
18 35 22 35 5 0 6 5 3 10 -3 6 0 10 7 10 10 0 9 3 -2 10 -12 8 -12 10 2 15 9
4 19 18 23 33 3 14 16 39 28 56 12 17 15 26 6 21 -9 -5 -8 -1 4 12 9 11 14 23
10 26 -3 4 -1 7 5 7 7 0 12 9 12 20 0 11 5 20 11 20 5 0 7 5 4 10 -3 6 -1 10
4 10 6 0 10 3 9 8 -3 9 34 85 45 93 5 3 8 8 6 10 -4 8 14 54 27 67 8 7 12 18
9 23 -4 5 -2 9 4 9 5 0 8 9 6 20 -2 11 -1 18 3 16 4 -3 18 19 31 47 12 29 30
68 39 87 8 19 14 37 13 39 -2 2 4 8 13 13 8 5 13 15 10 23 -4 8 -2 15 4 15 6
0 13 14 17 31 4 17 14 33 22 36 12 5 12 7 1 14 -10 7 -10 9 0 9 6 0 12 8 12
19 0 10 7 24 15 31 8 6 14 15 14 18 -2 15 14 52 22 52 5 0 9 5 9 11 0 5 10 31
22 57 11 26 21 53 21 60 0 6 4 12 9 12 5 0 13 11 18 25 5 14 20 46 32 73 12
26 21 50 20 55 -1 4 3 7 9 7 5 0 7 5 4 10 -3 6 -1 10 5 10 7 0 10 7 6 15 -3 8
-2 15 2 15 4 0 15 14 24 30 9 17 13 30 7 30 -5 0 -1 10 11 22 11 12 20 30 20
40 0 10 4 18 9 18 5 0 12 10 16 23 4 12 8 24 9 27 1 3 5 15 10 28 4 12 12 22
17 22 5 0 8 3 7 8 -4 14 13 52 23 52 6 0 7 5 4 10 -4 6 -1 17 5 25 7 8 9 15 6
15 -4 0 0 7 8 16 9 8 16 22 16 30 0 8 5 14 12 14 6 0 9 3 5 6 -3 3 3 23 14 42
10 20 19 42 19 49 0 7 4 13 9 13 5 0 12 14 16 30 4 17 11 30 16 30 5 0 8 3 7
8 -3 13 13 52 22 52 5 0 7 9 5 20 -2 11 0 18 6 15 5 -4 9 1 9 9 0 9 5 16 11
16 5 0 7 4 4 10 -3 5 1 20 10 33 8 13 12 27 8 30 -3 4 -2 7 4 7 10 0 26 36 24
53 -1 4 3 7 9 7 6 0 10 3 9 8 -2 14 13 52 21 52 4 0 11 16 14 35 4 20 11 33
17 30 5 -4 10 1 10 9 2 24 3 27 37 95 17 35 29 68 25 74 -3 6 -1 7 5 3 11 -6
16 6 13 27 0 4 4 7 11 7 6 0 8 3 5 7 -4 3 -1 13 7 22 8 9 15 19 15 24 0 4 8
21 16 37 8 16 15 33 15 37 0 5 5 15 12 24 13 16 20 35 21 56 1 19 27 2 27 -18z
m1243 -4383 c4 -10 1 -13 -8 -9 -8 3 -12 9 -9 14 7 12 11 11 17 -5z"/>
<path d="M2387 3323 c-15 -28 -23 -53 -20 -57 4 -3 2 -6 -3 -6 -5 0 -18 -22
-29 -49 -10 -28 -22 -48 -26 -45 -5 2 -6 -5 -4 -16 2 -11 -3 -24 -13 -30 -9
-5 -14 -10 -9 -10 4 0 -1 -17 -12 -39 -11 -21 -17 -41 -14 -45 4 -3 1 -6 -5
-6 -6 0 -13 -14 -17 -30 -4 -18 -11 -27 -18 -23 -6 4 -8 0 -4 -10 4 -10 1 -17
-5 -17 -6 0 -9 -2 -6 -6 3 -3 -7 -31 -22 -62 -15 -31 -30 -67 -34 -79 -4 -13
-12 -23 -18 -23 -6 0 -8 -3 -5 -6 3 -4 1 -16 -5 -28 -7 -11 -13 -23 -13 -26
-1 -3 -11 -25 -23 -50 -11 -24 -18 -48 -16 -52 3 -5 0 -7 -7 -6 -6 2 -13 -8
-14 -20 -1 -13 -8 -28 -16 -33 -8 -5 -11 -9 -6 -9 4 0 1 -10 -8 -23 -8 -13
-12 -27 -9 -30 4 -4 -1 -9 -10 -13 -9 -3 -14 -10 -11 -14 3 -4 -8 -33 -24 -63
-16 -31 -27 -58 -23 -61 3 -3 0 -6 -7 -6 -7 0 -10 -4 -6 -9 3 -5 -1 -16 -9
-24 -8 -8 -12 -17 -9 -21 4 -3 1 -6 -5 -6 -7 0 -10 -27 -8 -77 1 -43 -3 -84
-9 -92 -8 -12 -6 -13 10 -8 20 7 20 7 1 -8 -11 -8 -14 -15 -7 -15 7 0 10 -4 7
-8 -3 -5 21 -8 52 -7 31 1 63 -3 70 -8 6 -5 12 -6 12 -1 0 11 290 11 308 1 6
-5 12 -5 12 0 0 10 291 10 308 0 6 -5 12 -5 12 0 0 10 291 10 308 0 6 -5 12
-4 12 1 0 5 31 8 68 7 68 -2 68 -2 68 24 -1 14 -4 31 -8 37 -4 6 -4 14 0 18 4
4 7 33 8 64 0 41 -4 62 -17 76 -10 10 -16 23 -13 28 3 4 0 8 -6 8 -6 0 -8 5
-5 10 3 6 1 10 -5 10 -6 0 -8 5 -5 10 3 6 1 10 -4 10 -6 0 -10 3 -9 8 2 11
-13 45 -31 66 -13 16 -13 18 -1 11 9 -5 8 0 -4 13 -11 12 -15 22 -11 22 5 0 0
7 -11 16 -10 8 -14 13 -7 10 6 -3 -6 29 -28 71 -21 42 -39 83 -39 90 0 7 -4
13 -10 13 -5 0 -10 5 -10 10 0 6 -21 54 -46 108 -26 53 -47 102 -47 109 0 7
-7 15 -14 17 -8 3 -12 10 -8 15 3 5 1 12 -5 16 -6 4 -8 11 -5 16 4 5 1 9 -4 9
-6 0 -11 5 -11 11 0 6 -18 48 -40 94 -22 46 -40 88 -40 94 0 6 -4 11 -10 11
-5 0 -10 9 -10 19 0 11 -5 23 -10 26 -6 4 -8 11 -5 16 4 5 2 9 -3 9 -12 0 -34
49 -27 61 4 5 1 9 -4 9 -6 0 -11 5 -11 11 0 17 -28 40 -35 29 -3 -5 -15 -10
-26 -10 -10 0 -19 -5 -19 -11 0 -15 -53 -7 -66 10 -8 11 -13 11 -18 2 -6 -9
-11 -8 -21 5 -11 16 -15 13 -38 -33z"/>
</g>
</svg>
