<?xml version="1.0" standalone="no"?>
<!DOCTYPE svg PUBLIC "-//W3C//DTD SVG 20010904//EN"
 "http://www.w3.org/TR/2001/REC-SVG-20010904/DTD/svg10.dtd">
<svg version="1.0" xmlns="http://www.w3.org/2000/svg"
 width="1128.000000pt" height="1128.000000pt" viewBox="0 0 1128.000000 1128.000000"
 preserveAspectRatio="xMidYMid meet">
<metadata>
Created by potrace 1.14, written by Peter Selinger 2001-2017
</metadata>
<g transform="translate(0.000000,1128.000000) scale(0.100000,-0.100000)"
fill="#000000" stroke="none">
<path d="M4381 10550 c-103 -43 -141 -73 -170 -134 -11 -23 -743 -2097 -1627
-4611 -1192 -3388 -1609 -4584 -1612 -4626 -6 -74 25 -146 84 -198 54 -47 114
-65 191 -58 32 3 497 7 1033 9 l975 3 60 29 c33 17 82 53 109 80 50 51 51 54
421 1001 l372 950 1510 3 c1432 2 1511 1 1518 -15 4 -10 168 -457 366 -993
198 -536 364 -985 369 -997 17 -41 91 -112 133 -128 37 -14 149 -15 1018 -13
l976 3 49 30 c60 38 105 106 111 172 3 26 12 64 21 83 9 19 18 62 20 95 4 59
-32 160 -1637 4609 -903 2501 -1648 4558 -1656 4569 -8 12 -41 48 -72 81 -103
105 28 96 -1303 95 l-1165 0 -94 -39z m2234 -482 c17 -41 3136 -8687 3143
-8710 4 -17 -33 -18 -681 -18 -536 0 -687 3 -694 13 -5 6 -166 437 -358 957
-191 520 -358 972 -371 1005 -52 128 -174 197 -292 166 -34 -10 -52 -9 -93 3
-44 13 -261 15 -1675 16 l-1625 1 -45 -26 c-24 -14 -56 -43 -70 -65 -14 -21
-192 -463 -395 -982 -203 -518 -374 -955 -380 -970 l-11 -28 -744 0 c-409 0
-744 4 -744 8 0 9 3014 8578 3035 8630 l14 32 986 0 986 0 14 -32z"/>
<path d="M5641 8579 c-13 -5 -39 -7 -57 -3 -75 14 -187 -43 -232 -119 -11 -18
-268 -787 -572 -1710 -304 -924 -563 -1707 -577 -1740 -54 -133 -1 -268 127
-326 45 -20 59 -21 1311 -21 l1266 0 88 45 c102 51 137 81 167 143 47 97 80
-8 -598 1886 -578 1613 -622 1732 -659 1774 -21 25 -57 53 -80 63 -44 20 -143
24 -184 8z m487 -2109 l467 -1305 -452 -3 c-249 -1 -657 -1 -906 0 l-452 3
426 1295 c235 712 430 1304 434 1315 3 11 8 16 11 10 2 -5 215 -597 472 -1315z"/>
</g>
</svg>
