<?xml version="1.0" standalone="no"?>
<!DOCTYPE svg PUBLIC "-//W3C//DTD SVG 20010904//EN"
 "http://www.w3.org/TR/2001/REC-SVG-20010904/DTD/svg10.dtd">
<svg version="1.0" xmlns="http://www.w3.org/2000/svg"
 width="1174.000000pt" height="1174.000000pt" viewBox="0 0 1174.000000 1174.000000"
 preserveAspectRatio="xMidYMid meet">
<metadata>
Created by potrace 1.14, written by Peter Selinger 2001-2017
</metadata>
<g transform="translate(0.000000,1174.000000) scale(0.100000,-0.100000)"
fill="#000000" stroke="none">
<path d="M9023 11462 c-13 -2 -23 -7 -23 -11 0 -3 -8 -7 -17 -7 -10 0 -43 -4
-73 -8 -30 -4 -75 -9 -100 -12 -25 -3 -55 -7 -67 -9 -13 -2 -23 -1 -23 3 0 4
-29 8 -65 8 -36 0 -65 -4 -65 -8 0 -5 -4 -6 -10 -3 -5 3 -10 2 -10 -2 0 -5
-11 -10 -24 -11 -13 -1 -37 -7 -52 -13 -16 -7 -58 -11 -94 -9 -170 6 -297 -1
-309 -18 -10 -12 -32 -15 -166 -18 -71 -1 -130 -3 -130 -4 0 -1 -7 -3 -15 -5
-8 -1 -42 -9 -75 -16 -33 -7 -71 -13 -85 -13 -14 1 -28 -4 -32 -10 -5 -8 -8
-8 -8 0 0 10 -25 10 -85 0 -44 -8 -57 -12 -90 -25 -67 -26 -82 -30 -120 -35
-22 -3 -58 -8 -80 -10 -61 -8 -127 -17 -155 -21 -14 -2 -52 -7 -85 -10 -33 -4
-73 -9 -90 -11 -96 -13 -166 -15 -177 -7 -21 15 -135 4 -146 -14 -14 -22 -105
-37 -357 -58 -33 -2 -71 -7 -85 -10 -14 -2 -38 -7 -55 -9 -72 -11 -121 -19
-140 -23 -11 -3 -80 -6 -152 -8 -95 -2 -133 1 -133 9 0 7 -3 7 -8 1 -10 -14
-72 -14 -72 -1 0 7 -3 7 -8 -1 -4 -6 -27 -14 -51 -18 -23 -3 -55 -11 -70 -17
-14 -6 -36 -11 -48 -11 -13 0 -23 -3 -23 -8 0 -4 -8 -8 -17 -7 -10 0 -29 -3
-43 -6 -62 -16 -258 -42 -285 -38 -38 5 -235 5 -255 0 -8 -2 -19 -6 -25 -9 -5
-4 -18 -5 -27 -4 -10 2 -18 0 -18 -4 0 -4 -42 -8 -92 -9 -139 -4 -213 -15
-203 -32 3 -4 -3 -6 -14 -3 -10 3 -32 -2 -49 -11 -16 -8 -45 -18 -63 -21 -19
-3 -47 -8 -64 -12 -38 -8 -64 -10 -330 -28 -33 -2 -60 -4 -60 -5 0 -1 -19 -3
-41 -4 -23 -2 -47 -7 -54 -11 -19 -12 -79 -25 -138 -30 -29 -3 -64 -7 -76 -9
-13 -2 -50 -7 -82 -11 -33 -4 -70 -9 -84 -11 -14 -2 -67 -6 -119 -9 -52 -3
-99 -9 -104 -12 -11 -7 -21 -8 -102 -18 -22 -2 -56 -7 -75 -9 -19 -3 -55 -8
-80 -11 -70 -8 -160 -25 -223 -41 -12 -3 -41 -10 -65 -15 -53 -11 -66 -17
-178 -95 -107 -74 -224 -172 -224 -188 0 -3 -12 -18 -26 -33 -63 -66 -149
-221 -184 -328 -7 -22 -19 -48 -28 -57 -8 -10 -11 -18 -6 -18 5 0 3 -4 -5 -9
-11 -7 -14 -52 -17 -207 -2 -110 -5 -226 -8 -259 -2 -33 -7 -105 -10 -160 -5
-88 -9 -127 -16 -145 -1 -3 -1 -9 0 -15 1 -5 3 -26 5 -46 2 -20 12 -55 24 -79
19 -40 20 -56 16 -219 -10 -360 -10 -501 -2 -501 4 0 5 -6 0 -12 -4 -7 -9 -22
-11 -33 -5 -27 -8 -37 -17 -58 -4 -10 -9 -28 -10 -40 -1 -12 -3 -24 -5 -27 -1
-3 -2 -20 -2 -38 0 -18 -5 -35 -10 -38 -6 -4 -5 -10 3 -15 12 -8 11 -11 -1
-19 -12 -8 -12 -10 -1 -10 11 0 11 -3 1 -15 -9 -10 -9 -15 -1 -15 6 0 11 -5
11 -11 0 -5 -5 -7 -12 -3 -7 5 -8 3 -3 -6 8 -13 10 -21 20 -98 5 -34 3 -42 -7
-36 -10 5 -10 4 -1 -6 7 -8 9 -19 4 -29 -5 -9 -8 -28 -7 -43 1 -16 -1 -28 -5
-28 -3 0 -5 -10 -5 -22 1 -13 -1 -27 -5 -33 -6 -9 -22 -77 -34 -153 -8 -46 -8
-46 -5 -52 1 -3 3 -16 6 -30 7 -42 27 -114 34 -125 11 -14 21 -86 25 -184 2
-46 6 -98 9 -115 8 -57 20 -171 18 -178 -1 -5 4 -8 10 -8 10 0 10 -2 0 -9 -8
-4 -13 -11 -13 -15 1 -3 1 -7 0 -8 -2 -5 -10 -112 -10 -133 0 -28 8 -120 11
-120 1 0 3 -9 5 -20 6 -42 16 -89 21 -97 8 -13 6 -329 -3 -383 -5 -27 -8 -97
-7 -155 0 -58 -2 -109 -6 -115 -4 -5 -8 -17 -8 -25 0 -8 -5 -31 -10 -50 -12
-49 -6 -167 12 -217 8 -22 12 -44 9 -47 -4 -3 -2 -6 4 -6 5 0 11 -6 12 -12 1
-7 4 -257 6 -555 4 -451 2 -549 -10 -583 -8 -22 -12 -40 -10 -40 3 0 0 -11 -5
-25 -5 -14 -6 -25 -2 -25 8 0 8 -203 -1 -216 -3 -5 3 -27 14 -48 16 -33 19
-62 19 -170 0 -112 -3 -171 -10 -171 -1 0 -3 -18 -4 -40 -1 -22 -8 -50 -15
-62 -6 -13 -8 -23 -4 -23 4 0 2 -4 -5 -9 -21 -13 -19 -139 3 -182 10 -19 22
-37 26 -40 13 -8 16 -1038 4 -1047 -6 -4 -10 -17 -9 -30 1 -12 -2 -22 -5 -22
-8 0 -6 -204 2 -230 2 -8 7 -22 10 -30 16 -41 38 -116 43 -148 7 -43 60 -189
80 -219 8 -13 12 -23 9 -23 -4 0 3 -13 14 -29 12 -16 21 -34 21 -40 0 -6 4
-11 9 -11 5 0 12 -8 15 -18 3 -9 19 -32 35 -50 17 -17 27 -32 24 -32 -3 0 24
-30 60 -66 40 -40 68 -78 72 -96 11 -50 43 -94 83 -114 20 -10 39 -21 42 -24
3 -3 14 -6 25 -6 33 -2 66 -11 135 -34 36 -13 72 -23 80 -23 8 0 21 -4 28 -10
6 -5 12 -6 12 -3 0 4 9 2 20 -4 15 -8 20 -8 20 1 0 8 4 8 13 2 6 -5 59 -9 117
-8 58 1 120 -3 139 -8 83 -22 166 -34 266 -41 89 -5 103 -9 159 -44 22 -13 46
-26 55 -27 9 -2 18 -4 21 -5 3 -1 8 -2 13 -1 4 0 7 -3 7 -7 0 -7 66 -30 101
-35 8 -2 19 -6 26 -10 6 -4 22 -3 35 2 13 4 33 5 46 0 13 -5 22 -5 22 2 0 6 7
6 19 -1 11 -5 22 -7 25 -2 5 9 47 9 63 -1 5 -4 13 -3 17 0 3 4 14 8 24 9 16 2
56 7 132 18 46 7 120 17 145 20 11 1 25 4 30 7 11 5 290 3 340 -3 17 -2 36 -8
43 -12 8 -4 16 -5 19 -2 3 3 13 1 22 -4 10 -5 48 -11 86 -15 38 -3 72 -9 75
-13 3 -4 12 -8 20 -8 8 -1 29 -5 45 -8 69 -14 344 -25 351 -14 2 3 12 5 22 3
9 -1 23 2 30 8 8 6 12 6 12 -2 0 -7 5 -9 12 -5 6 4 36 9 67 10 31 2 88 6 128
8 40 2 77 7 82 11 6 3 11 1 11 -6 0 -7 4 -8 13 -2 6 5 32 8 57 7 25 -1 104 -5
175 -8 123 -5 159 -8 300 -22 33 -3 87 -7 120 -9 33 -2 94 -9 135 -15 99 -15
145 -20 205 -25 45 -4 81 -10 95 -16 3 -1 10 -3 15 -4 6 -1 17 -5 25 -8 8 -3
35 -8 60 -11 25 -2 61 -9 80 -15 74 -21 106 -28 123 -25 9 1 19 -2 23 -7 3 -5
13 -5 25 1 12 7 19 7 19 1 0 -7 8 -7 23 -2 13 5 30 5 37 1 8 -5 21 -5 30 0 9
5 23 4 33 -1 12 -7 17 -6 17 2 0 8 4 9 13 0 10 -8 17 -7 25 1 9 9 12 9 12 0 0
-9 5 -10 18 -3 11 6 24 6 35 0 12 -7 17 -6 17 1 0 6 5 8 13 3 16 -10 38 -10
61 0 13 6 16 6 12 -2 -5 -8 0 -8 18 -1 18 6 26 6 26 -1 0 -6 6 -7 13 -2 12 7
21 10 67 17 14 2 39 9 55 16 68 28 145 30 425 15 80 -4 174 -9 210 -10 147 -7
272 -17 300 -25 15 -4 31 -6 34 -2 3 3 6 0 6 -6 0 -7 3 -11 8 -10 7 2 91 -18
122 -29 24 -9 134 -18 155 -13 6 1 15 2 20 1 31 -6 425 -1 491 6 44 4 138 7
209 5 251 -7 470 -6 510 2 66 12 158 38 187 53 15 7 31 14 35 15 5 1 24 8 43
17 19 8 51 16 70 17 19 1 44 2 56 3 24 1 100 73 146 137 17 24 35 44 40 44 4
0 8 5 8 10 0 6 25 43 55 84 58 79 124 201 150 276 1 3 4 12 8 20 7 16 27 93
33 125 2 11 7 31 10 45 11 42 13 274 4 317 -5 22 -14 80 -19 128 -6 48 -15 93
-21 100 -9 11 -14 28 -24 80 -3 21 -31 81 -42 92 -6 7 -15 9 -19 5 -5 -4 -6
-2 -2 3 6 12 -37 64 -68 81 -11 7 -19 19 -17 27 1 9 -2 18 -8 22 -5 3 -10 14
-10 24 0 29 -96 101 -135 101 -8 0 -15 4 -15 8 0 4 -10 9 -22 9 -13 1 -24 7
-26 13 -2 5 -8 10 -13 10 -6 0 -20 9 -32 21 -12 11 -51 34 -86 51 -35 17 -81
48 -101 69 -54 57 -75 62 -182 44 -25 -4 -38 -3 -38 4 0 6 -7 11 -15 11 -8 0
-15 5 -15 10 0 6 -3 10 -7 9 -16 -2 -53 14 -53 23 0 5 -4 7 -9 4 -5 -4 -11 -3
-13 1 -3 8 -76 44 -81 41 -1 -1 -13 5 -27 12 -28 16 -293 23 -321 9 -9 -4 -20
-4 -25 1 -5 5 -25 5 -48 0 -22 -5 -44 -7 -48 -4 -4 3 -8 0 -8 -6 0 -7 -6 -10
-14 -7 -8 3 -29 2 -48 -3 -18 -5 -53 -12 -78 -15 -111 -15 -147 -22 -158 -29
-4 -2 -14 -1 -22 4 -9 5 -19 5 -27 -2 -7 -6 -13 -7 -13 -2 0 5 -27 9 -61 9
-33 0 -63 3 -66 8 -2 4 -8 5 -13 2 -11 -7 -120 45 -120 57 0 4 -3 7 -7 6 -5
-1 -17 3 -28 9 -22 12 -171 9 -220 -5 -35 -10 -301 -8 -360 2 -22 4 -51 9 -65
12 -14 2 -41 7 -60 9 -128 19 -137 21 -180 30 -32 8 -85 15 -130 19 -19 1 -49
10 -66 19 -17 9 -34 13 -38 10 -3 -4 -6 -2 -6 3 0 9 -136 9 -213 0 -20 -2 -35
-1 -32 3 2 5 -19 2 -48 -6 -50 -14 -62 -17 -117 -28 -50 -10 -264 -4 -331 10
-15 2 -52 16 -83 30 -31 14 -56 22 -56 19 0 -4 -7 -1 -15 6 -8 7 -15 10 -15 7
0 -3 -15 0 -32 8 -40 16 -178 17 -197 1 -8 -6 -16 -10 -18 -8 -7 6 -73 -11
-73 -19 0 -4 -9 -6 -20 -4 -14 3 -20 -2 -20 -13 0 -15 -2 -15 -10 -2 -8 12
-10 12 -10 1 0 -8 -7 -11 -20 -8 -11 3 -20 2 -20 -2 0 -7 -51 -12 -147 -14
-18 0 -33 -5 -33 -11 0 -7 -3 -8 -8 -1 -4 6 -36 11 -72 12 -36 1 -66 6 -68 12
-2 6 -8 9 -13 5 -5 -3 -9 0 -9 6 0 6 -4 8 -10 5 -5 -3 -10 -1 -10 5 0 7 -6 10
-14 7 -7 -3 -19 0 -25 6 -6 6 -11 8 -11 4 0 -3 -11 -2 -25 3 -15 6 -26 6 -30
0 -4 -7 -13 -6 -26 0 -10 6 -19 7 -19 3 0 -4 -28 -7 -62 -7 -35 1 -67 -1 -72
-4 -6 -3 -19 -7 -30 -8 -12 -1 -40 -7 -64 -13 -43 -11 -92 -6 -92 10 0 5 -14
16 -32 25 -24 12 -62 17 -145 18 -62 1 -113 -2 -113 -7 0 -4 -5 -5 -11 -1 -6
3 -25 8 -42 9 -51 5 -82 14 -85 25 -2 6 -8 8 -13 4 -5 -3 -9 -1 -9 4 0 16 -50
32 -101 32 -31 0 -48 4 -44 10 3 6 1 10 -4 10 -6 0 -21 11 -33 25 -11 13 -25
22 -30 19 -4 -3 -8 0 -8 6 0 14 -32 57 -86 116 -23 24 -40 44 -38 44 1 0 -21
25 -51 55 -29 30 -56 55 -59 55 -12 0 -66 64 -66 77 0 7 -4 13 -8 13 -5 0 -15
19 -22 43 -8 23 -18 48 -24 56 -9 12 -8 13 3 6 11 -6 10 -2 -2 15 -12 18 -14
27 -5 37 6 7 6 13 1 13 -5 0 -10 6 -11 13 -4 46 -20 94 -60 177 -52 109 -59
179 -24 247 5 10 7 24 5 31 -3 6 0 12 7 12 6 0 8 5 4 11 -3 6 -8 39 -10 73 -1
33 -6 103 -10 155 -6 83 -5 96 10 107 10 7 16 16 14 21 -2 4 7 12 20 18 12 5
22 13 22 17 0 5 8 8 18 8 10 0 28 9 40 20 12 11 28 20 37 20 8 0 15 4 15 9 0
5 8 12 18 15 9 3 33 19 52 36 19 16 38 30 42 30 4 0 36 18 72 41 36 22 69 38
75 35 5 -3 11 -2 13 4 1 5 15 11 31 12 15 1 27 5 27 8 0 3 17 6 38 7 20 1 49
3 65 6 15 2 30 1 33 -4 2 -5 15 -5 27 -1 27 9 48 9 64 -1 6 -4 14 -3 18 3 4 6
10 8 15 5 5 -3 25 1 45 9 19 8 38 15 41 15 12 -1 113 65 108 72 -2 4 9 17 26
29 16 12 30 19 30 16 0 -3 19 4 43 17 46 24 50 24 426 15 108 -3 211 -1 230 4
20 6 132 11 250 12 201 3 301 -5 301 -24 0 -4 9 -6 21 -3 12 4 25 0 30 -8 5
-9 9 -10 9 -2 0 8 9 9 28 4 30 -9 264 -6 302 3 14 3 35 8 48 10 12 3 27 8 33
12 6 3 62 8 124 9 103 3 118 1 161 -21 26 -13 53 -24 61 -24 7 0 13 -4 13 -9
0 -14 88 -24 245 -25 116 -2 163 2 207 15 31 9 59 14 62 11 3 -3 6 0 6 5 0 6
8 10 18 8 9 -1 22 0 27 4 6 3 12 6 15 7 5 1 33 11 66 24 21 8 162 6 236 -4 24
-3 68 -9 98 -12 83 -9 540 -10 540 -1 0 4 14 7 30 7 17 0 30 5 30 11 0 5 4 8
8 5 7 -4 213 53 251 70 9 4 18 8 21 8 3 1 35 16 72 34 64 30 85 44 144 99 14
13 36 26 49 29 14 3 25 10 25 15 0 5 6 9 13 9 7 0 19 9 27 20 8 11 22 20 32
20 10 0 18 8 19 18 0 9 3 28 6 42 2 14 6 31 7 38 1 8 9 18 17 23 8 5 10 9 6 9
-12 0 14 23 46 39 15 8 27 18 27 23 0 4 6 8 14 8 7 0 16 13 19 29 4 16 21 44
40 63 18 18 44 49 57 68 13 19 27 37 30 40 10 9 44 65 41 68 -1 2 5 9 14 16 9
6 18 20 20 31 2 11 4 21 5 23 5 7 3 49 -3 59 -4 6 -3 14 3 18 6 4 8 10 5 15
-3 5 -1 19 6 31 9 17 8 20 -3 14 -10 -6 -11 -5 0 6 15 17 16 148 1 186 -7 15
-13 39 -15 53 -1 14 -5 41 -9 60 -4 19 -7 43 -8 53 -1 9 -5 17 -9 17 -4 0 -8
8 -8 18 0 9 -7 30 -15 46 -8 15 -15 39 -15 52 0 13 -4 24 -10 24 -5 0 -9 3 -8
8 4 12 -24 72 -33 72 -5 0 -9 6 -9 13 0 7 -9 23 -20 35 -11 12 -20 24 -20 27
0 6 -27 32 -68 67 -11 9 -23 14 -26 11 -3 -4 -6 -1 -6 6 0 7 -4 10 -8 7 -4 -3
-19 15 -32 39 -22 40 -70 75 -105 75 -7 0 -16 6 -18 13 -4 8 -6 8 -6 0 -1 -6
-9 -10 -18 -8 -63 13 -73 17 -73 30 0 8 -4 15 -10 15 -5 0 -10 6 -10 13 -1 6
-19 26 -41 42 -22 17 -46 35 -53 42 -8 7 -16 9 -20 6 -3 -4 -6 -1 -6 6 0 7 -5
9 -10 6 -6 -4 -17 -2 -24 5 -8 6 -35 12 -60 13 -25 1 -46 5 -46 8 0 7 -48 12
-100 10 -159 -4 -384 5 -406 17 -12 6 -31 9 -43 7 -11 -2 -21 1 -21 6 0 6 -6
7 -12 2 -19 -11 -37 -12 -44 -2 -3 5 -10 6 -17 2 -6 -4 -23 -7 -37 -8 -14 -1
-32 -5 -40 -10 -19 -12 -290 -15 -312 -4 -9 5 -85 11 -170 14 -169 5 -178 6
-178 15 0 6 -24 11 -67 14 -13 0 -23 3 -23 6 0 3 -80 7 -177 8 -98 2 -222 5
-276 7 -54 2 -111 -1 -125 -6 -55 -22 -132 -35 -182 -33 -125 7 -180 13 -197
22 -26 14 -108 7 -156 -13 -20 -8 -38 -15 -39 -14 -2 0 -10 -2 -18 -4 -8 -3
-28 -9 -45 -14 -16 -5 -95 -8 -175 -6 -230 5 -459 5 -995 -1 -275 -3 -510 -3
-523 0 -12 2 -22 10 -22 18 0 7 -18 33 -40 57 -22 24 -40 48 -40 52 0 5 -4 6
-9 3 -5 -3 -14 1 -21 9 -7 8 -19 15 -26 15 -8 0 -14 5 -14 10 0 6 -5 10 -10
10 -17 0 -70 42 -64 52 3 4 -3 8 -12 8 -10 0 -15 2 -12 5 3 3 -10 21 -28 40
-30 31 -32 38 -23 62 5 14 8 32 5 40 -3 7 -1 13 4 13 6 0 6 9 0 25 -6 17 -6
25 1 25 6 0 7 5 4 11 -6 9 -12 40 -16 89 -1 8 -6 21 -12 28 -5 6 -6 12 -3 12
4 0 -2 10 -14 22 -11 12 -20 28 -20 35 0 7 -4 13 -8 13 -14 0 -62 95 -62 122
0 13 9 34 19 45 11 12 17 24 14 27 -4 3 -2 6 4 6 12 0 13 6 16 98 2 39 0 72
-3 72 -3 0 -6 17 -5 38 0 20 -2 41 -4 47 -9 17 0 78 15 100 15 24 23 74 29
185 2 41 4 76 5 78 3 2 3 4 14 52 16 73 140 250 174 250 5 0 23 13 38 29 16
15 54 41 84 57 30 16 61 35 68 41 15 14 52 18 52 5 0 -5 14 -7 30 -6 16 1 30
-1 30 -4 0 -4 48 -6 107 -6 95 2 121 4 168 18 6 2 24 6 40 11 17 4 39 15 49
24 11 9 16 10 12 4 -5 -9 -2 -11 8 -7 9 3 16 9 16 13 0 3 42 7 93 8 113 3 128
5 145 21 7 6 22 12 32 12 10 0 22 5 25 10 3 6 14 10 24 10 10 0 32 7 49 16 18
8 36 13 42 9 5 -3 10 -2 10 3 0 18 123 36 242 37 38 0 68 4 68 9 0 5 7 3 15
-4 8 -7 15 -8 15 -3 0 5 26 10 58 11 98 4 122 7 122 15 0 5 5 5 12 1 15 -9 78
-12 78 -4 0 3 10 6 23 7 87 2 145 13 204 39 18 8 50 17 70 19 21 3 54 7 73 9
117 17 159 17 186 3 16 -8 35 -12 42 -10 6 3 12 1 12 -4 0 -5 19 -10 43 -12
23 -1 51 -3 62 -5 11 -2 25 -1 30 3 6 3 17 6 25 7 24 1 70 23 116 54 59 39
113 47 300 43 170 -4 215 3 318 45 53 21 80 25 201 28 230 6 307 15 365 42 19
9 38 17 43 18 4 1 8 2 10 4 3 3 127 19 202 26 17 1 30 3 30 4 0 1 14 3 30 4
53 5 150 17 165 21 8 2 46 6 83 10 37 3 76 8 85 10 33 6 140 17 203 20 35 2
71 6 79 8 46 11 110 30 150 44 25 9 65 17 90 19 67 5 103 14 121 30 8 8 18 14
22 14 3 0 23 18 45 40 21 22 43 40 49 40 5 0 20 18 32 40 25 45 90 112 101
105 4 -2 22 9 41 25 19 16 40 29 47 30 6 0 12 4 12 9 0 6 13 18 30 27 36 22
62 74 66 129 1 22 3 40 4 40 1 0 3 29 4 65 1 36 10 99 19 140 9 41 21 121 26
178 5 57 14 109 19 115 27 32 18 129 -14 161 -16 17 -21 36 -29 109 -3 27 -10
57 -16 68 -5 10 -7 19 -3 19 4 0 -17 19 -46 42 -28 22 -56 50 -61 62 -11 26
-30 56 -47 74 -30 33 -42 60 -48 112 -13 115 -52 156 -156 164 -83 6 -112 14
-168 41 -51 26 -181 72 -222 79 -15 2 -31 7 -35 9 -25 14 -303 28 -370 19z"/>
</g>
</svg>
