<?xml version="1.0" standalone="no"?>
<!DOCTYPE svg PUBLIC "-//W3C//DTD SVG 20010904//EN"
 "http://www.w3.org/TR/2001/REC-SVG-20010904/DTD/svg10.dtd">
<svg version="1.0" xmlns="http://www.w3.org/2000/svg"
 width="500.000000pt" height="500.000000pt" viewBox="0 0 500.000000 500.000000"
 preserveAspectRatio="xMidYMid meet">
<metadata>
Created by potrace 1.14, written by Peter Selinger 2001-2017
</metadata>
<g transform="translate(0.000000,500.000000) scale(0.100000,-0.100000)"
fill="#000000" stroke="none">
<path d="M1855 4090 l-130 -5 3 -24 c2 -13 14 -33 25 -43 17 -14 18 -17 5 -12
-21 7 -22 2 -7 -50 6 -21 12 -46 14 -55 10 -56 48 -232 55 -261 5 -19 11 -53
15 -75 3 -22 12 -67 20 -101 8 -34 16 -73 19 -85 2 -13 12 -60 21 -104 9 -44
19 -92 21 -107 1 -16 10 -56 19 -90 8 -35 17 -74 20 -88 2 -14 9 -54 16 -90 6
-36 14 -72 16 -80 3 -8 7 -24 8 -35 1 -11 24 -119 49 -240 26 -121 55 -263 66
-315 11 -52 21 -106 24 -119 10 -44 45 -215 50 -241 2 -14 9 -47 15 -75 6 -27
13 -61 15 -75 3 -14 9 -45 14 -70 37 -178 52 -251 57 -290 3 -25 9 -54 12 -65
6 -20 56 -74 70 -76 5 0 17 -3 28 -5 11 -3 169 -7 350 -9 274 -3 334 -1 350
11 17 13 20 28 21 117 2 106 5 135 24 252 15 90 18 111 25 160 3 22 8 56 10
76 3 20 8 52 10 70 3 19 7 45 10 59 3 14 7 49 10 79 3 29 7 57 10 61 2 4 7 22
9 41 3 19 7 45 10 59 3 13 8 40 11 60 3 20 8 47 10 60 3 14 8 43 11 65 13 96
34 175 47 175 17 0 77 -43 82 -60 2 -8 7 -31 9 -50 3 -19 7 -46 10 -60 18 -88
48 -264 53 -310 3 -30 8 -57 12 -60 3 -3 7 -18 7 -35 1 -16 5 -50 9 -75 3 -25
8 -60 11 -79 2 -19 8 -52 13 -75 5 -22 9 -48 9 -56 0 -16 9 -80 17 -115 2 -11
7 -40 10 -65 7 -49 13 -85 15 -85 0 0 3 -22 5 -49 7 -76 23 -114 62 -144 l36
-27 326 0 c360 0 390 4 392 54 3 95 12 173 24 211 6 20 11 42 25 115 6 28 12
61 15 75 3 14 10 54 16 90 6 36 19 99 29 140 10 41 22 95 26 120 4 25 8 47 9
50 1 3 5 28 9 55 5 28 15 79 23 115 18 79 20 88 27 135 4 20 10 56 15 78 5 23
22 103 36 177 15 74 30 142 33 150 3 8 4 18 4 22 -1 4 5 38 13 76 7 37 16 79
19 92 2 14 11 57 19 95 9 39 18 86 21 105 9 54 34 181 112 555 22 106 46 247
45 260 0 2 6 26 14 52 8 26 11 51 7 55 -7 7 -219 11 -455 9 -75 -1 -78 -2 -88
-28 -6 -16 -12 -51 -14 -78 -3 -61 -10 -107 -40 -255 -19 -99 -24 -127 -30
-175 -3 -22 -8 -47 -10 -55 -2 -8 -7 -33 -10 -55 -2 -22 -7 -51 -10 -65 -3
-14 -8 -38 -11 -55 -3 -16 -9 -48 -13 -70 -5 -22 -9 -47 -9 -55 -1 -16 -6 -47
-22 -120 -5 -25 -12 -61 -15 -80 -3 -19 -12 -69 -21 -111 -8 -42 -16 -92 -18
-110 -2 -19 -14 -83 -26 -144 -12 -60 -23 -123 -26 -140 -2 -16 -6 -41 -9 -55
-7 -39 -16 -92 -20 -130 -4 -37 -11 -70 -19 -98 -3 -9 -8 -36 -11 -59 -11 -76
-34 -176 -43 -185 -15 -15 -50 -17 -61 -4 -17 21 -40 94 -52 165 -25 154 -37
220 -48 255 -10 29 -13 46 -27 151 -3 22 -10 58 -16 80 -5 22 -12 51 -14 65
-3 14 -9 39 -14 55 -4 17 -12 53 -16 80 -4 28 -8 57 -10 65 -1 8 -6 35 -10 60
-4 25 -9 50 -10 55 -11 38 -18 71 -35 155 -11 52 -21 109 -24 125 -2 17 -6 39
-9 50 -31 128 -48 221 -51 274 -2 35 -6 65 -8 68 -3 2 -127 5 -277 6 l-273 2
-7 -25 c-4 -14 -10 -57 -13 -95 -4 -39 -11 -86 -16 -105 -5 -19 -12 -51 -15
-70 -7 -40 -13 -74 -26 -145 -5 -27 -11 -63 -14 -80 -2 -16 -18 -102 -35 -190
-17 -88 -41 -209 -52 -270 -12 -60 -23 -119 -25 -130 -10 -53 -25 -139 -29
-168 -3 -18 -7 -43 -10 -57 -9 -44 -56 -294 -58 -310 -6 -46 -65 -125 -82
-108 -8 7 -44 135 -51 178 -3 19 -8 44 -11 54 -3 11 -7 34 -9 50 -1 17 -9 63
-18 101 -15 72 -25 128 -32 180 -2 17 -11 62 -19 100 -9 39 -18 79 -20 90 -2
11 -13 76 -25 145 -20 125 -23 143 -34 190 -3 14 -8 39 -11 55 -26 152 -48
275 -65 355 -10 52 -24 123 -30 157 -15 84 -17 96 -47 253 -14 74 -27 161 -29
194 -2 32 -5 60 -6 61 -6 7 -291 10 -413 5z m390 -65 c0 -19 -3 -35 -7 -35
-10 0 -11 54 -1 63 3 4 7 7 7 7 1 0 1 -16 1 -35z m2418 21 l182 -1 -1 -25 c-2
-34 -10 -83 -36 -200 -6 -30 -12 -62 -14 -70 -1 -8 -5 -35 -9 -60 -4 -25 -12
-56 -16 -69 -5 -13 -7 -26 -5 -28 3 -3 0 -17 -5 -32 -6 -14 -12 -39 -14 -56
-2 -16 -11 -66 -20 -110 -9 -44 -19 -91 -21 -105 -3 -14 -7 -33 -10 -42 -3
-10 -7 -30 -10 -45 -2 -16 -14 -75 -25 -132 -12 -57 -23 -116 -25 -130 -3 -14
-18 -91 -34 -171 -16 -80 -31 -156 -34 -170 -3 -14 -8 -38 -11 -55 -4 -16 -35
-174 -70 -350 -35 -176 -66 -331 -69 -345 -3 -14 -10 -50 -15 -80 -6 -30 -13
-64 -15 -75 -22 -101 -58 -278 -62 -310 -12 -81 14 -75 -349 -75 l-325 0 10
26 c6 14 8 29 5 34 -3 5 -8 29 -10 53 -3 25 -8 56 -11 68 -2 13 -7 39 -9 57
-3 17 -8 49 -11 70 -3 20 -8 53 -11 72 -3 19 -6 47 -7 63 -1 15 -3 27 -6 27
-3 0 -6 8 -6 18 -1 15 -9 68 -18 117 -15 81 -20 113 -21 130 0 11 -3 25 -6 30
-2 6 -4 24 -4 40 0 17 -3 32 -6 35 -4 3 -9 25 -12 50 -3 25 -8 61 -12 80 -5
32 -20 125 -30 190 -2 14 -6 43 -10 65 -3 23 -7 50 -9 62 -10 51 -21 119 -31
188 -10 80 -12 82 -60 88 -55 8 -70 3 -72 -24 -1 -11 -13 -31 -27 -44 -14 -13
-26 -34 -27 -47 0 -13 -2 -32 -5 -43 -2 -11 -6 -40 -9 -65 -4 -25 -8 -52 -10
-60 -2 -8 -7 -37 -10 -65 -4 -27 -8 -57 -10 -65 -3 -8 -7 -35 -10 -60 -3 -25
-8 -58 -12 -75 -4 -16 -8 -43 -9 -60 -1 -16 -5 -41 -9 -55 -3 -14 -8 -49 -10
-78 -3 -30 -7 -57 -9 -61 -3 -4 -8 -34 -11 -66 -4 -33 -9 -62 -10 -65 -4 -6
-16 -81 -21 -125 -1 -16 -5 -41 -7 -55 -2 -14 -8 -50 -12 -80 -5 -30 -9 -57
-10 -60 -1 -3 -5 -27 -9 -55 -4 -27 -10 -61 -12 -75 -2 -14 -7 -41 -10 -60
-21 -136 24 -121 -345 -120 -175 1 -324 -2 -329 -5 -12 -8 -12 -3 -1 28 6 14
6 40 1 63 -5 22 -11 53 -15 71 -3 18 -12 63 -20 100 -9 37 -17 77 -19 88 -2
11 -11 55 -20 97 -9 42 -19 94 -22 115 -3 21 -8 41 -10 44 -2 3 -6 21 -9 40
-3 19 -15 77 -26 129 -11 52 -22 104 -24 115 -11 60 -18 95 -28 135 -4 14 -9
39 -11 55 -3 17 -10 53 -16 80 -6 28 -13 62 -15 77 -2 15 -9 45 -15 68 -6 22
-8 45 -5 50 3 6 2 10 -3 10 -5 0 -9 6 -9 13 0 6 -3 26 -7 42 -3 17 -9 46 -12
65 -3 19 -8 38 -10 41 -2 4 -6 24 -10 45 -3 22 -12 69 -20 106 -8 36 -17 77
-18 90 -2 12 -6 30 -9 38 -5 13 -11 42 -22 115 -2 11 -6 31 -9 45 -11 52 -68
316 -72 338 -7 35 -14 70 -19 95 -3 12 -18 87 -35 166 -17 85 -36 151 -46 162
-17 19 -12 19 179 19 208 -1 203 0 213 -50 6 -31 16 -86 20 -107 5 -28 11 -61
17 -88 3 -11 8 -40 11 -65 4 -25 8 -52 9 -60 2 -8 8 -40 15 -70 6 -30 17 -93
26 -140 14 -77 49 -269 61 -330 5 -24 19 -104 30 -165 2 -16 7 -40 9 -51 2
-12 7 -38 10 -58 3 -19 10 -55 15 -78 5 -24 13 -63 16 -88 4 -24 8 -47 11 -51
2 -4 6 -28 9 -55 4 -26 8 -51 10 -55 3 -4 7 -24 10 -45 3 -22 12 -73 20 -114
18 -93 24 -125 31 -170 3 -19 7 -42 9 -50 2 -8 7 -28 10 -45 2 -16 7 -39 9
-50 2 -11 11 -58 20 -105 9 -47 19 -96 22 -110 3 -14 6 -31 6 -37 1 -7 10 -15
20 -19 10 -3 18 -9 18 -14 0 -10 53 -30 96 -37 29 -4 33 -1 43 29 6 18 13 48
16 66 3 17 7 47 10 65 3 17 8 39 10 47 2 8 6 31 9 50 8 50 16 93 21 110 2 8 7
38 11 65 3 28 8 52 9 55 2 3 11 46 19 95 17 95 22 124 31 165 9 44 15 74 21
109 3 18 8 43 10 55 13 68 37 194 40 211 1 11 12 67 24 125 11 58 23 116 25
130 2 14 6 34 8 45 3 11 8 40 12 65 11 67 14 80 21 103 4 12 8 33 9 47 4 35
13 87 26 142 6 26 9 62 6 81 l-4 34 196 -1 c108 -1 201 -4 207 -8 7 -4 15 -22
18 -40 3 -18 9 -44 12 -58 3 -14 7 -32 8 -40 2 -8 8 -40 14 -70 17 -86 24
-123 26 -147 0 -13 5 -23 9 -23 4 0 7 -6 6 -12 -2 -10 6 -66 16 -108 10 -42
16 -70 20 -95 2 -16 14 -77 26 -135 11 -58 22 -114 24 -125 2 -11 6 -32 9 -47
8 -39 15 -74 20 -100 2 -13 15 -79 30 -148 31 -151 36 -179 41 -205 1 -11 11
-56 20 -100 9 -44 19 -93 22 -110 2 -16 8 -46 13 -65 10 -40 23 -116 24 -142
0 -10 4 -18 9 -18 4 0 6 -4 3 -8 -8 -13 58 -71 88 -76 14 -2 30 -7 36 -11 21
-13 48 6 54 38 3 18 8 42 10 53 2 12 7 38 10 58 19 117 23 141 26 141 1 0 3 9
4 20 7 53 17 112 21 135 3 14 7 36 10 50 3 14 7 34 9 45 2 11 7 40 11 65 4 25
9 54 12 65 2 11 6 34 8 50 5 38 12 80 19 103 3 9 7 33 10 52 3 19 8 46 11 60
3 14 8 39 10 55 4 30 21 131 29 170 5 24 33 175 42 225 9 52 12 71 18 115 4
22 8 47 11 55 2 8 7 32 11 54 3 21 8 48 10 60 2 11 7 37 10 56 8 45 12 65 14
65 2 0 12 79 11 98 0 9 3 17 7 17 4 0 8 10 8 23 2 28 12 94 18 116 4 14 13 63
22 126 1 11 3 20 4 20 8 0 8 89 0 105 -9 16 -8 18 5 14 8 -4 97 -7 198 -8z
m-2407 -112 c3 -21 3 -36 0 -33 -3 3 -8 23 -12 45 -3 21 -3 36 0 33 3 -3 8
-23 12 -45z m2608 -39 c-4 -8 -8 -15 -10 -15 -2 0 -4 7 -4 15 0 8 4 15 10 15
5 0 7 -7 4 -15z m-2596 -22 c-1 -10 2 -29 6 -43 6 -17 5 -22 -2 -15 -13 13
-23 75 -12 75 5 0 8 -8 8 -17z m2592 -12 c0 -6 -4 -13 -10 -16 -5 -3 -10 1
-10 9 0 9 5 16 10 16 6 0 10 -4 10 -9z m-15 -61 c-4 -6 -9 -23 -11 -37 -7 -38
-16 -45 -10 -8 2 17 5 36 5 43 1 6 6 12 12 12 5 0 7 -5 4 -10z m-2545 -100
c16 -88 20 -123 12 -116 -3 4 -7 12 -8 19 -1 7 -7 41 -13 77 -7 36 -14 79 -16
95 -9 57 13 -9 25 -75z m2517 -30 c-2 -11 -6 -22 -9 -26 -4 -3 -5 2 -3 13 2
10 4 21 4 26 1 4 3 7 6 7 3 0 4 -9 2 -20z m-1228 -109 c15 -79 9 -91 -8 -14
-7 32 -15 67 -18 78 -3 13 -2 16 4 10 5 -5 15 -39 22 -74z m1217 52 c-3 -10
-7 -31 -10 -48 -16 -96 -31 -155 -39 -155 -4 0 -6 8 -3 18 3 9 12 51 21 92 18
88 25 110 31 110 3 0 3 -8 0 -17z m-2478 -60 c-1 -10 2 -34 5 -53 5 -26 5 -29
-2 -14 -14 32 -20 84 -11 84 5 0 8 -8 8 -17z m1286 -123 c3 -19 10 -57 16 -85
7 -27 14 -61 16 -75 3 -14 7 -31 9 -37 2 -7 0 -13 -5 -13 -6 0 -10 6 -11 13 0
6 -2 19 -4 27 -7 37 -28 147 -31 165 -1 11 -3 20 -4 20 -1 0 -3 8 -5 19 -2 11
0 15 5 10 5 -5 12 -25 14 -44z m-1268 7 c9 -61 13 -77 17 -84 3 -5 8 -29 12
-53 14 -95 17 -115 22 -122 2 -5 0 -8 -5 -8 -5 0 -13 21 -17 46 -3 25 -8 54
-11 65 -11 51 -15 68 -24 118 -5 30 -10 57 -10 60 0 9 14 -10 16 -22z m2414
-72 c0 -8 -4 -15 -8 -15 -5 0 -9 7 -9 15 0 8 4 15 9 15 4 0 8 -7 8 -15z m-14
-40 c-1 -8 -5 -17 -8 -21 -5 -4 -4 16 1 34 3 9 9 -1 7 -13z m-1 -43 c-5 -4
-11 -16 -12 -27 -2 -25 -15 -91 -29 -147 -1 -5 -2 -18 -3 -31 0 -13 -8 -32
-17 -43 -8 -10 -13 -13 -9 -6 3 7 8 25 11 40 5 35 16 93 21 112 2 8 6 26 8 40
4 23 12 62 14 68 1 1 7 2 14 2 7 0 8 -3 2 -8z m-1085 -82 c0 -5 0 -11 -1 -12
0 -2 4 -15 10 -30 6 -16 7 -28 3 -28 -4 0 -13 18 -19 40 -5 22 -6 40 -2 40 5
0 9 -4 9 -10z m-1263 -62 c-3 -8 -6 -5 -6 6 -1 11 2 17 5 13 3 -3 4 -12 1 -19z
m17 -33 c3 -8 1 -15 -3 -15 -5 0 -11 7 -15 15 -3 8 -1 15 3 15 5 0 11 -7 15
-15z m1263 -7 c2 -17 0 -19 -7 -8 -5 8 -6 18 -4 22 8 12 10 10 11 -14z m-1261
-41 c2 -7 10 -48 19 -92 9 -44 18 -96 21 -115 2 -19 6 -46 9 -60 13 -60 16
-84 10 -79 -3 4 -8 17 -10 30 -3 13 -7 35 -10 49 -2 14 -7 39 -10 55 -3 17 -8
39 -10 50 -2 11 -6 34 -9 50 -3 17 -7 41 -10 55 -12 60 -15 82 -9 76 4 -4 8
-12 9 -19z m1289 -106 c-9 -8 -12 3 -18 54 l-6 50 14 -50 c8 -27 12 -51 10
-54z m980 49 c-4 -6 -8 -20 -10 -33 -10 -58 -16 -93 -20 -107 -2 -8 -4 -17 -4
-19 -1 -2 -3 -2 -6 1 -3 3 -1 25 4 49 5 24 13 61 16 82 3 20 10 37 16 37 6 0
7 -5 4 -10z m-969 -83 c3 -18 13 -68 19 -97 13 -62 16 -84 10 -78 -7 7 -44
163 -45 187 0 16 13 7 16 -12z m934 -94 c0 -5 -7 -30 -15 -58 l-15 -50 6 45
c3 25 6 51 7 58 0 13 17 18 17 5z m-893 -120 c1 -24 0 -25 -6 -8 -7 17 -6 35
2 35 2 0 3 -12 4 -27z m-1267 -30 c0 -19 -13 -9 -16 12 -1 8 2 13 7 9 5 -3 9
-12 9 -21z m2123 -20 c-3 -18 -9 -33 -13 -33 -5 0 -4 15 1 32 5 18 9 35 9 37
0 2 2 2 4 0 2 -2 1 -19 -1 -36z m-846 5 c0 -7 5 -35 11 -63 6 -27 14 -63 16
-80 3 -16 10 -48 15 -70 6 -22 11 -46 11 -54 0 -23 -10 -6 -16 25 -3 15 -7 30
-9 34 -2 3 -11 47 -20 98 -8 51 -18 99 -21 107 -4 8 -2 15 3 15 5 0 10 -6 10
-12z m-1267 -40 c0 -19 -16 -5 -17 14 -2 18 0 20 7 8 5 -8 10 -18 10 -22z
m2110 -12 c0 -3 -4 -8 -10 -11 -5 -3 -10 -1 -10 4 0 6 5 11 10 11 6 0 10 -2
10 -4z m-2096 -66 c3 -19 8 -46 11 -60 3 -14 7 -41 10 -60 3 -19 7 -45 9 -56
11 -53 16 -97 11 -92 -3 3 -8 16 -10 29 -3 13 -7 35 -10 49 -2 14 -6 36 -9 50
-2 14 -11 63 -20 109 -9 46 -16 86 -16 90 1 15 18 -27 24 -59z m740 -9 c-4
-28 -10 -51 -15 -51 -4 0 -6 10 -3 23 2 12 7 37 10 55 10 51 16 31 8 -27z
m1338 9 c-2 -22 -8 -42 -12 -45 -5 -3 -7 3 -5 12 2 10 4 30 4 46 1 15 4 27 9
27 4 0 6 -18 4 -40z m-18 -87 c-2 -16 -7 -39 -11 -53 -3 -14 -5 -31 -4 -37 1
-7 -3 -13 -10 -13 -7 0 -9 8 -5 23 8 26 13 53 15 85 0 12 5 22 10 22 5 0 8
-12 5 -27z m-1343 -58 l-10 -40 4 50 c4 64 7 75 12 50 2 -11 -1 -38 -6 -60z
m596 -42 c2 -21 8 -52 22 -113 5 -25 12 -57 15 -72 3 -16 9 -40 12 -55 3 -15
2 -25 -1 -21 -4 3 -8 12 -9 20 -2 7 -5 20 -8 28 -5 13 -21 95 -34 170 -3 14
-7 33 -10 43 -3 9 -2 17 3 17 5 0 9 -8 10 -17z m-609 -45 c-5 -23 -12 -45 -15
-48 -3 -3 -3 6 0 20 4 14 7 35 7 48 0 12 4 22 9 22 5 0 5 -18 -1 -42z m1319
-33 c-1 -13 -6 -27 -9 -31 -4 -3 -5 2 -3 13 2 10 4 24 4 31 1 6 3 12 6 12 3 0
4 -11 2 -25z m-1327 -35 c0 -5 -5 -10 -11 -10 -5 0 -7 5 -4 10 3 6 8 10 11 10
2 0 4 -4 4 -10z m-616 -137 c2 -18 1 -33 -4 -33 -5 0 -9 8 -9 18 0 9 -2 28 -5
42 -3 14 -8 45 -10 70 -5 44 -5 44 9 -10 8 -30 16 -70 19 -87z m1932 111 c-3
-9 -6 -27 -6 -40 0 -13 -4 -24 -9 -24 -5 0 -7 12 -4 28 3 15 6 33 6 40 0 6 5
12 10 12 5 0 6 -7 3 -16z m-1331 -35 c-2 -11 -5 -42 -7 -70 -2 -27 -6 -49 -11
-49 -7 0 0 99 9 128 6 20 13 14 9 -9z m1305 -100 c-6 -30 -13 -67 -17 -84 -3
-16 -6 -38 -7 -47 0 -10 -4 -18 -9 -18 -5 0 -7 12 -3 28 7 30 12 52 27 130 6
30 13 52 15 49 2 -2 -1 -28 -6 -58z m-605 -69 c4 -25 3 -41 -2 -37 -4 5 -9 17
-9 28 -1 10 -2 20 -4 22 -1 1 -4 16 -6 32 -3 21 -1 26 5 15 5 -8 12 -35 16
-60z m-1287 22 c-1 -9 2 -30 6 -47 5 -19 4 -26 -2 -20 -13 13 -24 98 -12 90 5
-3 8 -13 8 -23z m566 -14 c-2 -18 -6 -49 -10 -68 -3 -19 -8 -48 -9 -65 -2 -16
-7 -46 -10 -65 -10 -55 -12 -74 -14 -92 0 -10 -5 -18 -10 -18 -5 0 -8 8 -6 18
2 9 4 17 5 17 1 0 3 14 5 30 11 97 17 144 26 184 6 25 10 56 10 69 -1 12 3 22
8 22 5 0 8 -15 5 -32z m733 -64 c-3 -3 -2 -17 3 -30 5 -13 7 -24 4 -24 -2 0
-8 10 -13 23 -8 22 -6 37 6 37 4 0 4 -3 0 -6z m-1280 -36 c4 -28 -6 -18 -12
12 -2 12 -1 20 2 16 4 -4 8 -16 10 -28z m1829 -60 c-4 -18 -9 -42 -10 -53 -2
-11 -6 -33 -10 -50 -3 -16 -8 -41 -11 -55 -12 -62 -17 -80 -25 -80 -5 0 -5 15
0 33 5 17 11 46 14 62 3 17 7 40 10 53 3 12 8 32 11 45 2 12 7 34 11 50 3 15
8 27 11 27 3 0 2 -15 -1 -32z m-1331 -168 c-4 -6 -9 -30 -11 -53 -6 -53 -11
-91 -14 -94 -1 -2 -3 -11 -4 -20 -8 -78 -31 -211 -36 -208 -4 2 -3 30 1 62 5
32 11 78 15 103 3 25 12 74 20 108 8 35 12 67 9 72 -7 11 5 40 17 40 5 0 6 -5
3 -10z m1275 -114 c-4 -19 -5 -37 -2 -40 3 -4 0 -6 -6 -6 -14 0 -14 6 -6 49 4
17 10 31 14 31 4 0 4 -16 0 -34z m-26 -128 c-3 -13 -8 -41 -11 -63 -9 -66 -23
-87 -17 -26 3 30 9 61 13 70 5 9 6 22 4 29 -3 6 0 12 6 12 5 0 8 -10 5 -22z"/>
<path d="M106 4074 c-3 -9 -6 -580 -6 -1270 l0 -1255 93 -93 c117 -117 168
-174 192 -209 10 -16 30 -33 44 -39 14 -6 114 -12 221 -14 319 -5 993 -5 1015
0 11 2 23 5 27 5 17 2 24 69 23 203 -1 137 -3 149 -26 182 -13 20 -33 36 -44
37 -11 0 -281 1 -600 2 l-580 2 1 398 c2 444 -2 423 71 436 35 6 546 5 923 -2
170 -3 219 2 240 28 9 11 12 59 12 161 -1 156 -4 174 -34 215 l-20 26 -593 -1
c-655 -1 -621 -5 -608 61 7 35 8 623 1 681 -4 38 -2 45 16 52 12 4 30 6 41 5
170 -22 298 -27 738 -28 398 -2 409 -1 423 18 12 16 14 52 11 190 -3 94 -10
182 -16 198 l-11 27 -774 0 c-696 0 -774 -2 -780 -16z m1505 -149 c1 -74 2
-143 3 -152 1 -17 -35 -18 -589 -23 -324 -3 -591 -6 -592 -8 -15 -23 -19 -122
-19 -448 1 -371 2 -393 20 -413 19 -21 22 -21 598 -21 l578 0 0 -155 0 -155
-577 0 c-499 -1 -581 -3 -598 -16 -19 -14 -20 -27 -21 -447 0 -238 4 -443 8
-457 5 -13 15 -28 21 -32 7 -4 272 -8 590 -8 l577 0 0 -154 0 -155 -606 1
c-469 0 -603 2 -595 12 14 17 8 24 -126 158 l-118 119 0 1232 c0 678 -4 1238
-8 1245 -7 9 140 12 722 12 l731 0 1 -135z m26 93 c-3 -8 -6 -5 -6 6 -1 11 2
17 5 13 3 -3 4 -12 1 -19z m-1510 -15 c-16 -16 -17 -16 -17 0 0 10 5 15 10 12
6 -3 10 -1 10 6 0 7 3 9 7 5 4 -3 -1 -14 -10 -23z m1510 -25 c-3 -8 -6 -5 -6
6 -1 11 2 17 5 13 3 -3 4 -12 1 -19z m-1500 -28 c-2 -23 -27 -14 -27 11 0 12
5 16 14 13 8 -3 14 -14 13 -24z m1500 -12 c-3 -8 -6 -5 -6 6 -1 11 2 17 5 13
3 -3 4 -12 1 -19z m-1500 -48 c-1 -10 -5 -16 -9 -14 -4 3 -8 1 -8 -5 0 -5 4
-12 8 -15 10 -6 10 -202 -1 -212 -10 -10 -9 -26 1 -20 10 6 9 -125 -1 -141 -5
-7 -4 -13 0 -13 5 0 9 -126 9 -280 0 -153 -4 -274 -8 -267 -5 8 -8 6 -8 -5 0
-10 5 -18 10 -18 6 0 10 -4 10 -8 0 -5 -7 -9 -15 -9 -19 0 -21 57 -2 58 10 0
10 2 0 6 -7 2 -13 11 -13 19 0 8 6 14 13 15 9 0 9 2 0 6 -17 6 -17 33 0 34 9
0 9 2 0 6 -17 6 -17 33 0 33 9 0 9 2 0 8 -6 4 -12 26 -11 50 0 23 4 39 9 36 5
-3 8 12 8 33 -1 37 -1 38 -9 8 -6 -26 -7 -24 -7 18 0 28 4 47 11 47 7 0 7 3 1
8 -16 11 -18 54 -3 63 10 7 10 9 1 9 -7 0 -13 5 -13 11 0 5 5 7 10 4 6 -3 10
1 10 10 0 9 -4 14 -9 11 -5 -4 -9 43 -8 108 0 63 4 113 9 110 4 -3 8 0 8 5 0
6 -4 11 -9 11 -5 0 -9 29 -9 65 0 36 4 62 9 59 5 -3 9 2 9 11 0 9 -4 14 -8 11
-4 -2 -9 15 -9 40 -1 25 3 42 8 39 5 -4 9 -1 9 4 0 6 -4 11 -10 11 -5 0 -10
12 -10 26 0 14 4 23 10 19 6 -3 10 -1 10 4 0 6 -4 11 -10 11 -5 0 -10 5 -10
11 0 8 4 8 14 0 8 -7 14 -21 13 -31z m1500 8 c-3 -8 -6 -5 -6 6 -1 11 2 17 5
13 3 -3 4 -12 1 -19z m-1500 -1091 c-2 -34 -7 -69 -12 -76 -5 -10 -4 -12 3 -7
14 9 13 -43 -1 -61 -6 -9 -5 -13 3 -13 9 0 9 -4 -1 -17 -8 -9 -9 -14 -4 -11 7
4 11 -12 11 -47 0 -30 -3 -52 -8 -49 -4 3 -8 0 -8 -5 0 -6 3 -11 8 -11 4 0 8
-72 8 -159 0 -88 -3 -158 -8 -155 -4 3 -8 0 -8 -5 0 -6 3 -11 8 -11 4 0 7 -88
7 -195 1 -111 -3 -195 -8 -195 -5 0 -5 -6 0 -12 13 -17 11 -124 -3 -138 -7 -7
-10 4 -11 35 -1 26 3 43 8 40 5 -4 9 4 9 17 0 19 -2 20 -10 8 -7 -11 -9 -2 -8
33 1 26 5 47 10 47 4 0 8 5 8 11 0 5 -4 8 -9 5 -13 -8 -10 178 3 186 8 5 7 8
-1 8 -16 0 -14 70 1 70 8 0 7 3 0 8 -16 10 -16 192 0 192 6 0 4 5 -4 10 -10 6
-11 10 -2 10 6 0 12 8 12 18 0 14 -2 15 -10 2 -5 -9 -8 23 -8 90 1 62 6 108
12 112 7 5 7 8 -1 8 -7 0 -13 7 -13 15 0 8 6 15 13 15 7 0 8 3 2 8 -13 9 -18
95 -5 87 6 -4 10 -1 10 4 0 6 -5 11 -10 11 -14 0 -10 83 4 92 7 5 5 8 -4 8
-13 0 -13 1 0 10 10 6 11 10 3 10 -8 0 -13 13 -13 30 0 20 5 30 15 30 11 0 14
-13 12 -63z m1500 -229 c-3 -8 -6 -5 -6 6 -1 11 2 17 5 13 3 -3 4 -12 1 -19z
m-1503 -1000 c-10 -16 -21 -7 -21 17 0 23 1 24 12 8 7 -10 11 -21 9 -25z
m1503 -280 c-3 -8 -6 -5 -6 6 -1 11 2 17 5 13 3 -3 4 -12 1 -19z"/>
<path d="M121 3304 c0 -11 3 -14 6 -6 3 7 2 16 -1 19 -3 4 -6 -2 -5 -13z"/>
</g>
</svg>
